# xmcd CD database file
#
# Track frame offsets:
#	150
#	13187
#	29103
#	45600
#	70496
#	88116
#	105765
#	122716
#	133213
#	157985
#	182732
#	199032
#	220657
#	233104
#	251709
#
# Disc length: 3525 seconds
#
# Revision: 0
# Processed by: cddbd v1.5.2PL0 Copyright (c) Steve Scherf et al.
# Submitted via: CDex 1.51
#
DISCID=d30dc30f
DTITLE=Don't Explane - Don't Explane
DYEAR=2000
DGENRE=Jazz
TTITLE0=Lullaby Of Birdland
TTITLE1=Look For The Silver Lining
TTITLE2=Mr. P.C.
TTITLE3=You Don't Know What Love Is
TTITLE4=Black Orpheus
TTITLE5=Is You Is Or Is You Ain't
TTITLE6=Afro Bluse
TTITLE7=Take The A Train
TTITLE8=Everything Happens To Me
TTITLE9=Stormy Westher
TTITLE10=Fly Me To The Moon
TTITLE11=Body And Soul
TTITLE12=In Your Own Sweet Way
TTITLE13=In The Moon/Tuxedo Junction
TTITLE14=Smile
EXTD=YEAR: 2000
EXTT0=
EXTT1=
EXTT2=
EXTT3=
EXTT4=
EXTT5=
EXTT6=
EXTT7=
EXTT8=
EXTT9=
EXTT10=
EXTT11=
EXTT12=
EXTT13=
EXTT14=
PLAYORDER=
